<svg width="16" height="19" viewBox="0 0 16 19" fill="none" xmlns="http://www.w3.org/2000/svg">
<path d="M5.094 19.006C4.4652 18.972 3.87348 18.6978 3.441 18.24C2.9236 17.7423 2.46188 17.1897 2.064 16.592C1.44248 15.702 0.951192 14.7279 0.605002 13.699C0.213206 12.5922 0.00709327 11.4281 -0.00499798 10.254C-0.0354356 9.10198 0.249862 7.96356 0.820002 6.96202C1.23758 6.24012 1.83319 5.63728 2.55 5.21102C3.25889 4.78659 4.06782 4.55813 4.894 4.54902C5.51682 4.58587 6.12886 4.72823 6.704 4.97002C7.163 5.17202 7.645 5.31402 8.14 5.39202C8.68602 5.27764 9.21955 5.11018 9.733 4.89202C10.3407 4.65476 10.9841 4.52188 11.636 4.49902C11.723 4.49902 11.809 4.49902 11.892 4.50902C13.322 4.55002 14.652 5.25202 15.492 6.40902C14.8364 6.75965 14.2909 7.28521 13.9161 7.92728C13.5414 8.56935 13.352 9.30277 13.369 10.046C13.3625 10.6144 13.4765 11.1776 13.7035 11.6987C13.9305 12.2198 14.2653 12.6868 14.686 13.069C15.069 13.4338 15.5148 13.7262 16.002 13.932C15.902 14.232 15.787 14.522 15.665 14.814C15.388 15.4593 15.0463 16.0748 14.645 16.651C14.2656 17.2283 13.8239 17.7622 13.328 18.243C12.8756 18.6919 12.2726 18.9567 11.636 18.986C11.0964 18.9621 10.5662 18.8355 10.074 18.613C9.5432 18.3818 8.97278 18.2551 8.394 18.24C7.7989 18.2518 7.21159 18.3777 6.664 18.611C6.19105 18.8244 5.68575 18.9572 5.169 19.004L5.094 19.006ZM8.244 4.49902C8.169 4.49902 8.094 4.49902 8.019 4.49002C8.00323 4.37099 7.99488 4.25109 7.994 4.13102C8.02671 3.13216 8.41707 2.17826 9.094 1.44302C9.47262 1.02048 9.93153 0.677486 10.444 0.434023C10.9216 0.188178 11.4435 0.04028 11.979 -0.000976562C11.994 0.130023 11.994 0.258024 11.994 0.380024C11.9799 1.36319 11.6105 2.30805 10.954 3.04002C10.6361 3.46624 10.2288 3.81772 9.76065 4.06977C9.29248 4.32182 8.77482 4.46833 8.244 4.49902Z" fill="#191D2B"/>
</svg>
