<svg xmlns="http://www.w3.org/2000/svg" width="20" height="20" viewBox="0 0 20 20">
  <g id="Group_56796" data-name="Group 56796" transform="translate(-234 -564)">
    <rect id="Rectangle_14275" data-name="Rectangle 14275" width="20" height="20" transform="translate(234 564)" fill="#6a6e83" opacity="0"/>
    <g id="svgexport-7_4_" data-name="svgexport-7 (4)" transform="translate(233.896 564)">
      <path id="Path_32254" data-name="Path 32254" d="M14.105,0h.142a4.283,4.283,0,0,1-1.078,3.228,3.343,3.343,0,0,1-2.943,1.381,4.154,4.154,0,0,1,1.1-3.127A4.742,4.742,0,0,1,14.105,0Zm4.3,14.681v.04a11.636,11.636,0,0,1-1.665,3.21c-.635.874-1.413,2.05-2.8,2.05-1.2,0-2-.772-3.228-.793-1.3-.021-2.017.646-3.207.813H7.1a3.624,3.624,0,0,1-2.093-1.442A12.634,12.634,0,0,1,2.1,11.29v-.895A5.861,5.861,0,0,1,4.663,5.584a4.322,4.322,0,0,1,2.9-.672,7.3,7.3,0,0,1,1.422.407,3.926,3.926,0,0,0,1.421.426,3.411,3.411,0,0,0,1-.3,6.133,6.133,0,0,1,3.207-.569,4.45,4.45,0,0,1,3.27,1.95,4.2,4.2,0,0,0-2.131,4.163A4.3,4.3,0,0,0,18.409,14.681Z" fill="#6a6e83"/>
    </g>
  </g>
</svg>
