<svg width="44" height="41" viewBox="0 0 44 41" fill="none" xmlns="http://www.w3.org/2000/svg">
<g id="MicrosoftTeams-image (8) 1 5" clip-path="url(#clip0_106_2225)">
<path id="Vector" d="M28.3264 30.4362C27.7018 30.3454 27.0648 30.3066 26.4562 30.155C24.9084 29.7679 23.5147 29.0458 22.2965 28.023C21.1917 27.0954 20.3084 25.9686 19.5739 24.7359C18.6321 23.1559 17.8826 21.485 17.3342 19.7286C17.1499 19.1387 16.9665 18.5489 16.7938 17.9564C16.7707 17.8761 16.7734 17.7412 16.823 17.6945C17.3103 17.2413 17.8108 16.8022 18.3043 16.3613C18.6357 17.0579 18.952 17.7562 19.2975 18.4395C20.2668 20.3608 21.5231 22.0749 23.1701 23.4733C24.2235 24.3691 25.4453 24.9414 26.8398 25.1521C28.4593 25.3963 30.0018 25.1627 31.4814 24.5093C32.2867 24.154 33.0965 23.7845 33.8407 23.3207C35.0377 22.5748 36.1567 21.7143 37.1197 20.6721C37.3722 20.3996 37.4785 20.4278 37.6823 20.7391C38.5461 22.0546 39.4144 23.3666 40.2826 24.6795C40.4527 24.9361 40.6264 25.19 40.8 25.4439C40.9117 25.6079 40.9081 25.7252 40.7398 25.8769C39.6899 26.8247 38.5054 27.5742 37.273 28.2575C35.6587 29.1524 33.9276 29.7379 32.1432 30.1752C30.9445 30.4689 29.7174 30.49 28.4895 30.4477C28.4354 30.4433 28.3814 30.4389 28.3282 30.4345L28.3264 30.4362Z" fill="#20B53B"/>
<path id="Vector_2" d="M2.12549 20.0194C2.60125 19.1809 3.05133 18.4023 3.48723 17.6158C4.00729 16.6777 4.52204 15.736 5.02616 14.789C5.20158 14.4584 5.2822 14.4064 5.61001 14.566C6.33385 14.9195 7.11794 15.0659 7.90379 15.1602C9.05999 15.2978 10.218 15.2978 11.3768 15.1117C12.2451 14.9724 13.0495 14.6779 13.838 14.3129C15.7154 13.4444 17.3031 12.1633 18.9102 10.8936C20.0505 9.99247 21.2713 9.18922 22.486 8.38774C23.5066 7.71499 24.6637 7.31292 25.8678 7.1692C26.8087 7.05634 27.7744 7.10836 28.7277 7.14011C29.8192 7.17626 30.8522 7.49279 31.8312 7.96363C32.9431 8.49795 33.985 9.14955 34.9401 9.92987C35.1882 10.1327 35.1589 10.369 34.9153 10.5524C33.8495 11.3521 32.7872 12.1571 31.7249 12.9612C31.3794 13.2231 31.0392 13.4929 30.6936 13.7557C30.5342 13.8773 30.4252 13.8756 30.2808 13.6842C29.3957 12.5151 28.2342 11.7436 26.8016 11.3971C25.8412 11.1643 24.8701 11.181 23.8903 11.2798C22.8422 11.3847 21.8578 11.6889 20.9019 12.1086C19.5898 12.6852 18.3831 13.4338 17.2977 14.3632C16.4242 15.1109 15.6055 15.922 14.7337 16.6724C13.6396 17.6132 12.5481 18.5628 11.3963 19.4313C10.225 20.3148 8.8695 20.8817 7.41119 21.0351C6.06275 21.1771 4.70189 21.0836 3.41723 20.5467C3.00083 20.373 2.58265 20.2054 2.12549 20.0194Z" fill="#20B53B"/>
<path id="Vector_3" d="M12.1758 36.9033C12.136 36.9033 12.0961 36.9024 12.0562 36.9024C12.0261 36.9007 11.9951 36.8989 11.965 36.8963C10.302 36.8945 8.63903 36.8927 6.97606 36.891C6.94417 36.891 6.91227 36.8919 6.88126 36.8927C6.82013 36.8936 6.75811 36.8954 6.69698 36.8963C6.66597 36.8963 6.63496 36.8963 6.60307 36.8954C6.51713 36.8971 6.43119 36.8989 6.34525 36.9007C6.2788 36.8804 6.21235 36.8592 6.14502 36.8389C6.18577 35.8206 6.21147 34.8013 6.2726 33.7838C6.34879 32.5009 6.59244 31.2427 6.97518 30.0162C7.3207 28.9114 7.74863 27.8322 8.36792 26.8499C9.02974 25.7998 9.69422 24.7444 10.4553 23.7666C11.1091 22.9263 11.8737 22.1636 12.6392 21.4177C13.262 20.8102 13.9549 20.2732 14.6238 19.7124C14.9436 19.4444 14.9835 19.4673 15.1323 19.8588C15.399 20.5597 15.6719 21.2581 15.951 21.9537C16.0325 22.1557 16.0387 22.3197 15.8482 22.4651C14.9888 23.1167 14.3004 23.9191 13.7077 24.8149C12.9227 26.0017 12.4248 27.3111 12.136 28.6822C11.8524 30.0268 11.7514 31.4058 11.8454 32.7822C11.9331 34.0703 12.0704 35.3568 12.4434 36.6035C12.4948 36.7755 12.4841 36.9024 12.2627 36.9113C12.2343 36.9095 12.2051 36.9068 12.1767 36.9051L12.1758 36.9033Z" fill="#20B53B"/>
<path id="Vector_4" d="M18.6605 6.24237C18.5657 8.09927 17.3484 9.22082 15.5932 9.25962C13.8505 9.29841 12.4835 7.87972 12.4844 6.10835C12.4844 4.54417 13.8142 3.10785 15.6358 3.1202C17.1712 3.13078 18.6862 4.44278 18.6605 6.24237Z" fill="#20B53B"/>
<path id="Vector_5" d="M6.14502 36.8394C6.21147 36.8596 6.27792 36.8808 6.34525 36.9011C6.2788 36.8799 6.21235 36.8596 6.14502 36.8394Z" fill="#20B53B"/>
<path id="Vector_6" d="M28.3262 30.436C28.3802 30.4404 28.4343 30.4449 28.4874 30.4493C28.4334 30.4449 28.3793 30.4404 28.3262 30.436Z" fill="#20B53B"/>
<path id="Vector_7" d="M6.60303 36.8955C6.63404 36.8955 6.66505 36.8955 6.69694 36.8964C6.66593 36.8964 6.63492 36.8964 6.60303 36.8955Z" fill="#20B53B"/>
<path id="Vector_8" d="M6.88037 36.8929C6.91227 36.8929 6.94416 36.892 6.97517 36.8911C6.94328 36.8911 6.91138 36.892 6.88037 36.8929Z" fill="#20B53B"/>
</g>
<defs>
<clipPath id="clip0_106_2225">
<rect width="44" height="41" fill="white"/>
</clipPath>
</defs>
</svg>
