<svg xmlns="http://www.w3.org/2000/svg" width="20" height="20" viewBox="0 0 20 20">
  <g id="gmail_icon" data-name="gmail icon" transform="translate(-0.214 -0.533)">
    <g id="Group_3787" data-name="Group 3787" transform="translate(0.214 0.533)">
      <g id="Group_3786" data-name="Group 3786" transform="translate(0)">
        <path id="Path_857" data-name="Path 857" d="M4.4,18.034a5.8,5.8,0,0,1,.307-1.856L1.263,13.6a9.875,9.875,0,0,0,0,8.857L4.7,19.882a5.8,5.8,0,0,1-.3-1.848" transform="translate(-0.214 -8.034)" fill="#fbbc05" fill-rule="evenodd"/>
        <path id="Path_858" data-name="Path 858" d="M11.807,4.624a6,6,0,0,1,3.767,1.318l2.977-2.909A10.352,10.352,0,0,0,2.623,6.1L6.067,8.677a6.02,6.02,0,0,1,5.74-4.053" transform="translate(-1.574 -0.533)" fill="#eb4335" fill-rule="evenodd"/>
        <path id="Path_859" data-name="Path 859" d="M11.807,32.409a6.02,6.02,0,0,1-5.74-4.053L2.623,30.929a10.225,10.225,0,0,0,9.183,5.57,9.872,9.872,0,0,0,6.667-2.492L15.2,31.534a6.435,6.435,0,0,1-3.4.875" transform="translate(-1.574 -16.5)" fill="#34a853" fill-rule="evenodd"/>
        <path id="Path_860" data-name="Path 860" d="M33.481,21.551a8.119,8.119,0,0,0-.233-1.818H23.714V23.6H29.2a4.5,4.5,0,0,1-2.09,2.989l3.269,2.473a9.841,9.841,0,0,0,3.1-7.508" transform="translate(-13.481 -11.551)" fill="#4285f4" fill-rule="evenodd"/>
      </g>
    </g>
  </g>
</svg>
