<svg xmlns="http://www.w3.org/2000/svg" width="24" height="24" viewBox="0 0 24 24">
  <g id="Group_64766" data-name="Group 64766" transform="translate(-283 -563)">
    <rect id="Rectangle_18119" data-name="Rectangle 18119" width="24" height="24" transform="translate(283 563)" fill="#fff" opacity="0"/>
    <g id="svgexport-6" transform="translate(283 478.862)">
      <path id="Path_11844" data-name="Path 11844" d="M22.2,104H1.8A1.8,1.8,0,0,1,0,102.2V90.073a1.8,1.8,0,0,1,1.8-1.8H22.2a1.8,1.8,0,0,1,1.8,1.8V102.2A1.8,1.8,0,0,1,22.2,104Z" fill="#73af00"/>
      <g id="Group_56207" data-name="Group 56207" transform="translate(4.745 91.586)">
        <path id="Path_11845" data-name="Path 11845" d="M102.374,167.766c.041.261.2.343.336.333a.338.338,0,0,0,.3-.317v-.9a.082.082,0,1,1,.163,0v.9a.326.326,0,0,0,.447.3l.081-.033c.008.753-.038,1.415-.039,1.427a.163.163,0,0,0,.151.174h.012a.163.163,0,0,0,.163-.151c0-.053.054-.778.039-1.58l.049-.02a.164.164,0,0,1,.133.006.466.466,0,0,0,.538-.087l.029-.029a.487.487,0,0,0,.118-.5l-.139-.417a.163.163,0,0,0,.121-.3l-.326-.163a.163.163,0,0,0-.228.2l.262.787a.162.162,0,0,1-.039.167l-.029.029a.14.14,0,0,1-.161.026.487.487,0,0,0-.339-.034,5.625,5.625,0,0,0-.2-1.405.163.163,0,0,0-.31.1,5.609,5.609,0,0,1,.187,1.424l-.2.078v-.9a.408.408,0,0,0-.816,0v.79l-.166-.822a.163.163,0,1,0-.32.065Z" transform="translate(-102.153 -165.733)" fill="#f5f5f5"/>
        <path id="Path_11846" data-name="Path 11846" d="M109.323,163.083a.163.163,0,0,0,.163-.163v-.163a.163.163,0,1,0-.326,0v.163A.163.163,0,0,0,109.323,163.083Z" transform="translate(-108.788 -162.421)" fill="#f5f5f5"/>
        <path id="Path_11847" data-name="Path 11847" d="M144.12,162.92h.163a.163.163,0,1,0,0-.326h-.163a.163.163,0,1,0,0,.326Z" transform="translate(-141.954 -162.421)" fill="#f5f5f5"/>
        <path id="Path_11848" data-name="Path 11848" d="M106.574,214.812l-.816.489a.163.163,0,1,0,.168.28l.816-.489a.163.163,0,1,0-.168-.28Z" transform="translate(-105.47 -212.169)" fill="#f5f5f5"/>
        <path id="Path_11849" data-name="Path 11849" d="M118.649,168.667l0,0a.372.372,0,0,0,.075.153.32.32,0,0,0,.278.108.45.45,0,0,0,.339-.178.3.3,0,0,0,.034.02.309.309,0,0,0,.287-.009.619.619,0,0,0,.292-.574.167.167,0,0,0-.17-.155.164.164,0,0,0-.156.169s0,.2-.115.267a.4.4,0,0,1-.051-.137.163.163,0,0,0-.324.027c0,.024-.005.233-.167.251a.4.4,0,0,1,0-.213.163.163,0,0,0-.25-.173l-.091.062c-.043-.946-.143-2.048-.144-2.062a.163.163,0,1,0-.325.03c0,.015.117,1.29.152,2.264l-.025.024a.42.42,0,0,0-.357-.281.6.6,0,0,0-.575.363.386.386,0,0,0,.125.486.544.544,0,0,0,.486.022,1.364,1.364,0,0,1-.265.5.684.684,0,0,1-.521.266.429.429,0,0,1-.317-.135.931.931,0,0,1-.172-.584.163.163,0,0,0-.154-.171.16.16,0,0,0-.172.154,1.251,1.251,0,0,0,.256.82.748.748,0,0,0,.546.242h.033a.994.994,0,0,0,.749-.38,1.687,1.687,0,0,0,.373-.836,1.849,1.849,0,0,1-.783,1.465.814.814,0,0,1-.817.06.7.7,0,0,1-.359-.69.163.163,0,0,0-.324-.04,1.024,1.024,0,0,0,.538,1.023,1.109,1.109,0,0,0,.494.118,1.207,1.207,0,0,0,.64-.193,2.169,2.169,0,0,0,.937-1.743C118.654,168.9,118.652,168.788,118.649,168.667Zm-.984.168c-.029-.019-.006-.081,0-.093a.277.277,0,0,1,.228-.16h.013c.021,0,.076.007.1.13,0,.013,0,.026.006.04C117.829,168.86,117.707,168.863,117.665,168.836Z" transform="translate(-115.346 -165.736)" fill="#f5f5f5"/>
        <path id="Path_11850" data-name="Path 11850" d="M101.842,243.308a.163.163,0,0,0-.223.058.337.337,0,0,1-.028.039l-.005-.013a1.1,1.1,0,0,1,0-.553.163.163,0,0,0-.315-.084,1.4,1.4,0,0,0,0,.752c.075.2.19.25.273.257h.022a.429.429,0,0,0,.325-.233A.163.163,0,0,0,101.842,243.308Z" transform="translate(-101.225 -238.708)" fill="#f5f5f5"/>
        <path id="Path_11851" data-name="Path 11851" d="M175.292,164.062a.162.162,0,0,0,.1-.035l.822-.646a.157.157,0,0,0,.027-.032.408.408,0,1,0-.469-.036l-.582.457a.163.163,0,0,0,.1.291Zm.741-1.142a.082.082,0,1,1-.082.082A.082.082,0,0,1,176.033,162.92Z" transform="translate(-171.664 -162.421)" fill="#f5f5f5"/>
        <path id="Path_11852" data-name="Path 11852" d="M185.39,190.44a.163.163,0,0,0-.206.1.5.5,0,0,0,.064.481.329.329,0,0,0,.244.093.716.716,0,0,0,.225-.042.163.163,0,1,0-.1-.309.567.567,0,0,1-.133.028.312.312,0,0,1,.013-.149A.163.163,0,0,0,185.39,190.44Z" transform="translate(-181.215 -188.953)" fill="#f5f5f5"/>
        <path id="Path_11853" data-name="Path 11853" d="M227.733,163.093a.163.163,0,0,0,.2-.111l.1-.326a.163.163,0,1,0-.313-.091l-.1.326A.163.163,0,0,0,227.733,163.093Z" transform="translate(-221.691 -162.281)" fill="#f5f5f5"/>
        <path id="Path_11854" data-name="Path 11854" d="M205.979,159.691a.163.163,0,1,0,.165-.282c-.033-.019-.028-.073-.027-.084a.128.128,0,0,1,.075-.109.163.163,0,1,0-.1-.312.448.448,0,0,0-.3.383A.4.4,0,0,0,205.979,159.691Z" transform="translate(-200.888 -158.897)" fill="#f5f5f5"/>
        <path id="Path_11855" data-name="Path 11855" d="M178.917,232.189a.163.163,0,0,0-.031.323.307.307,0,0,1,.031.166.163.163,0,0,0,.326,0C179.243,232.195,178.93,232.189,178.917,232.189Z" transform="translate(-175.12 -228.753)" fill="#f5f5f5"/>
        <path id="Path_11856" data-name="Path 11856" d="M234.752,208.3a.375.375,0,0,0,.061,0,.557.557,0,0,0,.386-.193.163.163,0,0,0-.231-.231c-.1.1-.15.1-.163.1-.031,0-.059-.045-.066-.056a.163.163,0,0,0-.291.148A.441.441,0,0,0,234.752,208.3Z" transform="translate(-228.187 -205.536)" fill="#f5f5f5"/>
        <path id="Path_11857" data-name="Path 11857" d="M293.906,190.932l0-.007a.163.163,0,0,0-.309.1.365.365,0,0,0,.265.254l.036,0a.4.4,0,0,0,.315-.218.163.163,0,0,0-.271-.181A.5.5,0,0,1,293.906,190.932Z" transform="translate(-284.568 -189.318)" fill="#f5f5f5"/>
        <path id="Path_11858" data-name="Path 11858" d="M204.034,170.307c0-.7-.031-1.348-.073-1.92a8.263,8.263,0,0,1,.573,1.162.163.163,0,0,0,.153.106.166.166,0,0,0,.057-.01.163.163,0,0,0,.1-.21,10.8,10.8,0,0,0-.943-1.788c-.089-.879-.189-1.436-.191-1.446a.163.163,0,0,0-.321.058c0,.007.053.294.114.778-.125-.186-.242-.354-.339-.492l.008,0a.163.163,0,1,0,.1-.309l-.489-.163a.162.162,0,0,0-.184.059.164.164,0,0,0-.024.05.356.356,0,0,0-.34-.082.278.278,0,0,0-.156.29,1.474,1.474,0,0,0,.113.462c.1.272.156.472.054.568a.178.178,0,0,1-.167.059c-.1-.025-.2-.159-.266-.358a.155.155,0,0,0-.013-.023,2.773,2.773,0,0,0-.05-.9.163.163,0,0,0-.32.064,1.553,1.553,0,0,1-.085,1.162.293.293,0,0,1-.244.11.094.094,0,0,1-.078-.036,1.572,1.572,0,0,1-.087-.919.163.163,0,0,0-.162-.186c-.281,0-.387.319-.481.6-.041.124-.118.354-.171.378-.1,0-.163-.29-.163-.49a.163.163,0,0,0-.163-.163h0a.163.163,0,0,0-.163.163c0,.376.128.816.489.816.269,0,.378-.293.469-.565a1.022,1.022,0,0,0,.185.58.418.418,0,0,0,.325.149.621.621,0,0,0,.5-.23.748.748,0,0,0,.061-.09.608.608,0,0,0,.342.257.47.47,0,0,0,.115.015.518.518,0,0,0,.355-.152.479.479,0,0,0,.054-.066.44.44,0,0,0,.121.018.66.66,0,0,0,.338-.1.163.163,0,0,0-.175-.275.345.345,0,0,1-.185.049,1.684,1.684,0,0,0-.124-.536,2.273,2.273,0,0,1-.084-.273l.038.035a.163.163,0,0,0,.231,0,.156.156,0,0,0,.024-.036c.169.233.517.722.875,1.287.068.694.128,1.578.128,2.549a.163.163,0,0,0,.326,0Z" transform="translate(-195.017 -165.73)" fill="#f5f5f5"/>
        <path id="Path_11859" data-name="Path 11859" d="M293.749,166.728a.163.163,0,1,0,.326,0,1.664,1.664,0,0,0-.18-.562.163.163,0,0,0-.292.146A1.448,1.448,0,0,1,293.749,166.728Z" transform="translate(-284.569 -165.739)" fill="#f5f5f5"/>
        <path id="Path_11860" data-name="Path 11860" d="M263.159,249.933a.163.163,0,0,0-.219.072.468.468,0,0,1-.068.1.913.913,0,0,1,.043-.3.163.163,0,0,0-.271-.163l-.326.326a.163.163,0,0,0,.231.231l.008-.008a.337.337,0,0,0,.087.171.3.3,0,0,0,.212.094.286.286,0,0,0,.045,0,.531.531,0,0,0,.331-.3A.163.163,0,0,0,263.159,249.933Z" transform="translate(-254.721 -245.338)" fill="#f5f5f5"/>
        <path id="Path_11861" data-name="Path 11861" d="M170.224,205.5h-1.15q.015-.061.031-.116c.458-.1.731-.243.811-.441a.365.365,0,0,0-.061-.366.4.4,0,0,0-.412-.176c-.232.047-.438.3-.587.7a1.874,1.874,0,0,0-.942.407,2.528,2.528,0,0,0-.338-1.084.163.163,0,0,0-.271.181,2.355,2.355,0,0,1,.3,1.214,1.291,1.291,0,0,1-.979,1.3c-.183,0-.263-.218-.3-.4a1.873,1.873,0,0,0,.783-.864,1.3,1.3,0,0,0-.109-.884l-.012-.028.01.01a.163.163,0,1,0,.231-.231c-.1-.1-.281-.245-.449-.175a.278.278,0,0,0-.156.29.693.693,0,0,0,.076.262.986.986,0,0,1,.092.677,1.38,1.38,0,0,1-.534.589.16.16,0,0,0-.123-.06h0a.163.163,0,0,0-.163.163c0,.029,0,.061,0,.093a8.574,8.574,0,0,1-1.049.574.163.163,0,0,0,.068.312.16.16,0,0,0,.067-.015,9.382,9.382,0,0,0,.974-.522.635.635,0,0,0,.589.536,1.386,1.386,0,0,0,1.091-.8.949.949,0,0,0,.109.156,1.838,1.838,0,0,0,1.246.479.163.163,0,0,0,.012-.326.349.349,0,0,1-.2-.1.279.279,0,0,1-.053-.214c.017-.2.665-.351,1.237-.36a.163.163,0,0,0,.151-.108l.163-.459a.163.163,0,0,0-.153-.218Zm-.716-.779.012,0c.016,0,.04.008.073.052.006.008.026.037.021.049-.019.046-.131.122-.366.192C169.352,204.812,169.453,204.734,169.508,204.723Zm-.985,2.144a1,1,0,0,1-.451-.274.693.693,0,0,1-.145-.574.477.477,0,0,1,.034-.069c.23-.021.843.07.886.245a.548.548,0,0,0-.345.426A.688.688,0,0,0,168.523,206.867Z" transform="translate(-161.85 -202.219)" fill="#f5f5f5"/>
        <path id="Path_11862" data-name="Path 11862" d="M291.4,166.671l-.163-.489a.163.163,0,0,0-.317.068c.113,1.126.326,3.321.326,3.572,0,.226-.4.671-1.052,1a.163.163,0,0,0,.146.292c.593-.3,1.232-.826,1.232-1.288,0-.241-.167-1.975-.262-2.949A.163.163,0,0,0,291.4,166.671Z" transform="translate(-281.253 -165.734)" fill="#f5f5f5"/>
        <path id="Path_11863" data-name="Path 11863" d="M335.883,194.02a.163.163,0,0,0,.273-.156.823.823,0,0,1-.023-.317.166.166,0,0,0,.17-.14.163.163,0,0,0-.138-.185.3.3,0,0,0-.269.091.373.373,0,0,0-.082.175l-.189-.189a.163.163,0,0,0-.231.231Z" transform="translate(-324.371 -191.611)" fill="#f5f5f5"/>
        <path id="Path_11864" data-name="Path 11864" d="M340.809,213.294l-.612.438a.163.163,0,1,0,.19.265l.612-.438a.163.163,0,1,0-.19-.265Z" transform="translate(-328.93 -210.714)" fill="#f5f5f5"/>
        <path id="Path_11865" data-name="Path 11865" d="M352.777,225.725a.163.163,0,0,0,.014.216.453.453,0,0,1,.033.235.163.163,0,0,0,.157.169h.006a.163.163,0,0,0,.163-.157c.012-.333-.1-.455-.144-.491A.163.163,0,0,0,352.777,225.725Z" transform="translate(-340.952 -222.532)" fill="#f5f5f5"/>
        <path id="Path_11866" data-name="Path 11866" d="M324.349,170.134a.163.163,0,0,0,.163-.163c0-.241-.012-.509-.033-.789a5.955,5.955,0,0,1,.382.71.163.163,0,1,0,.3-.128,8.984,8.984,0,0,0-.746-1.287c-.064-.6-.148-1.185-.212-1.606a.157.157,0,0,0,.1-.025.161.161,0,0,0,.072-.147.158.158,0,0,0,.018.047.593.593,0,0,1,.059.4.163.163,0,0,0,.127.193.174.174,0,0,0,.033,0,.163.163,0,0,0,.16-.13.925.925,0,0,0-.1-.641.164.164,0,0,0-.225-.05.161.161,0,0,0-.073.147.159.159,0,0,0-.018-.047l-.275-.428a.163.163,0,0,0-.3.116c0,.013.127.729.237,1.591-.125-.177-.25-.349-.371-.514-.02-.247-.04-.475-.057-.664l.027-.01a.163.163,0,0,0,.073-.219l-.163-.326a.163.163,0,0,0-.308.089c.019.195.04.41.06.637-.1-.136-.2-.26-.28-.366a.163.163,0,0,0-.033-.27l-.326-.163a.163.163,0,0,0-.2.248c.009.011.41.514.891,1.164a13.116,13.116,0,0,1,.06,2.434c-.014.043-.039.094-.063.1-.1.014-.334-.207-.452-.443a.227.227,0,0,0-.219-.148c-.175.011-.244.2-.368.554a2.3,2.3,0,0,1-.324.69,1.853,1.853,0,0,1-.2-.642.162.162,0,0,0,.315-.055c0-.243-.17-2.1-.265-3.111a.163.163,0,0,0,.094-.2l-.163-.489a.163.163,0,0,0-.317.067c.111,1.164.319,3.411.325,3.721v-.008a.163.163,0,1,0-.323.046c.048.333.169.907.45,1a.272.272,0,0,0,.087.014.32.32,0,0,0,.23-.106,2.354,2.354,0,0,0,.4-.815c.024-.068.052-.148.079-.216.15.218.411.491.675.469a.4.4,0,0,0,.349-.318,9.181,9.181,0,0,0-.006-2.036c.137.193.275.39.406.585.051.488.087.978.087,1.38A.163.163,0,0,0,324.349,170.134Z" transform="translate(-311.101 -165.74)" fill="#f5f5f5"/>
        <path id="Path_11867" data-name="Path 11867" d="M382.523,169.687c-.116-.861-.277-1.858-.379-2.47a.16.16,0,0,0,.137-.029.163.163,0,0,0,.031-.229l-.3-.387a.163.163,0,0,0-.29.127c0,.017.294,1.691.474,3.031a1.529,1.529,0,0,1-.269,1.224.722.722,0,0,1-.6.223.163.163,0,0,0-.021.326l.082,0a1.03,1.03,0,0,0,.776-.329A1.822,1.822,0,0,0,382.523,169.687Z" transform="translate(-368.037 -166.151)" fill="#f5f5f5"/>
        <path id="Path_11868" data-name="Path 11868" d="M371.058,256.183a.165.165,0,0,0,.008.229.069.069,0,0,1,.02.034.077.077,0,0,1-.025.036.163.163,0,1,0,.231.231.37.37,0,0,0,.12-.278.388.388,0,0,0-.128-.266A.162.162,0,0,0,371.058,256.183Z" transform="translate(-358.366 -251.572)" fill="#f5f5f5"/>
        <path id="Path_11869" data-name="Path 11869" d="M154.07,326.946h-1.142v-.163a.163.163,0,1,0-.326,0v.163h-8.645a2.278,2.278,0,0,0,1.468.489H152.6v.326a.163.163,0,0,0,.163.163h1.3a.489.489,0,1,0,0-.979Zm0,.652h-1.142v-.163h1.3l-.029-.088a.158.158,0,0,1,.029.088A.163.163,0,0,1,154.07,327.6Z" transform="translate(-141.954 -318.758)" fill="#f5f5f5"/>
      </g>
    </g>
  </g>
</svg>
