<svg id="vuesax_bold_discount-circle" data-name="vuesax/bold/discount-circle" xmlns="http://www.w3.org/2000/svg" width="15" height="15" viewBox="0 0 15 15">
  <g id="discount-circle">
    <path id="Vector" d="M0,0H15V15H0Z" fill="none" opacity="0"/>
    <path id="Vector-2" data-name="Vector" d="M0,0H15V15H0Z" fill="none" opacity="0"/>
    <path id="Vector-3" data-name="Vector" d="M6.25,0A6.25,6.25,0,1,0,12.5,6.25,6.252,6.252,0,0,0,6.25,0ZM4.375,3.75a.625.625,0,1,1-.625.625A.627.627,0,0,1,4.375,3.75Zm.331,4.706a.468.468,0,0,1-.662,0,.472.472,0,0,1,0-.662l3.75-3.75a.468.468,0,0,1,.662.662Zm3.419.294a.625.625,0,1,1,.619-.625A.622.622,0,0,1,8.125,8.75Z" transform="translate(1.25 1.25)" fill="#6a6e83"/>
  </g>
</svg>
