<svg xmlns="http://www.w3.org/2000/svg" width="24" height="24" viewBox="0 0 24 24">
  <g id="Group_64767" data-name="Group 64767" transform="translate(-323 -629)">
    <rect id="Rectangle_18119" data-name="Rectangle 18119" width="24" height="24" transform="translate(323 629)" fill="#fff" opacity="0"/>
    <g id="svgexport-17" transform="translate(323 544.724)">
      <path id="Path_32342" data-name="Path 32342" d="M23.586,104H.414A.414.414,0,0,1,0,103.586V88.69a.414.414,0,0,1,.414-.414H23.586A.414.414,0,0,1,24,88.69v14.9a.414.414,0,0,1-.414.414Z" fill="#f5f5f5"/>
      <path id="Path_32343" data-name="Path 32343" d="M24,89.486H0v-.8a.414.414,0,0,1,.414-.414H23.586A.414.414,0,0,1,24,88.69ZM0,93.114H24v1.21H0Zm0-2.419H24V91.9H0Zm24,6.048H.414A.414.414,0,0,1,0,96.329v-.8H24ZM0,100.372H24v1.21H0ZM23.586,104H.414A.414.414,0,0,1,0,103.586v-.8H24v.8a.414.414,0,0,1-.414.414ZM0,97.953H24v1.21H0Z" fill="#ff4b55"/>
      <path id="Path_32344" data-name="Path 32344" d="M10.759,88.277H.414A.414.414,0,0,0,0,88.691V96.33a.414.414,0,0,0,.414.414H10.759a.414.414,0,0,0,.414-.414V88.691A.414.414,0,0,0,10.759,88.277Z" transform="translate(0 -0.001)" fill="#41479b"/>
      <path id="Path_32345" data-name="Path 32345" d="M14.747,108l.092.275.29,0a.039.039,0,0,1,.023.07l-.233.172.087.276a.039.039,0,0,1-.06.044l-.236-.168-.236.168a.039.039,0,0,1-.06-.043l.087-.276-.233-.172a.039.039,0,0,1,.023-.07l.29,0,.092-.275A.039.039,0,0,1,14.747,108Zm0,1.437.092.275.29,0a.039.039,0,0,1,.023.07l-.233.172.087.276a.039.039,0,0,1-.06.043l-.236-.168-.236.168a.039.039,0,0,1-.06-.043l.087-.276-.233-.172a.039.039,0,0,1,.023-.07l.29,0,.092-.275A.039.039,0,0,1,14.747,109.432Zm0,1.437.092.275.29,0a.039.039,0,0,1,.023.07l-.233.172.087.276a.039.039,0,0,1-.06.044l-.236-.168-.236.168a.039.039,0,0,1-.06-.044l.087-.276-.233-.172a.039.039,0,0,1,.023-.07l.29,0,.092-.275A.039.039,0,0,1,14.747,110.869Zm0,1.437.092.275.29,0a.039.039,0,0,1,.023.07l-.233.172.087.276a.039.039,0,0,1-.06.044l-.236-.168-.236.168a.039.039,0,0,1-.06-.044l.087-.276-.233-.172a.039.039,0,0,1,.023-.07l.29,0,.092-.275A.039.039,0,0,1,14.747,112.306Zm0,1.437.092.275.29,0a.039.039,0,0,1,.023.07l-.233.172.087.276a.039.039,0,0,1-.06.044l-.236-.168-.236.168a.039.039,0,0,1-.06-.044l.087-.276-.233-.172a.039.039,0,0,1,.023-.07l.29,0,.092-.275A.039.039,0,0,1,14.747,113.743Zm1.115-5.043.092.275.29,0a.039.039,0,0,1,.023.07l-.233.172.087.276a.039.039,0,0,1-.06.043l-.236-.168-.236.168a.039.039,0,0,1-.06-.043l.087-.276-.233-.172a.039.039,0,0,1,.023-.07l.29,0,.092-.275a.039.039,0,0,1,.074,0Zm0,1.437.092.275.29,0a.039.039,0,0,1,.023.07l-.233.172.087.276a.039.039,0,0,1-.06.044l-.236-.168-.236.168a.039.039,0,0,1-.06-.044l.087-.276-.233-.172a.039.039,0,0,1,.023-.07l.29,0,.092-.275a.039.039,0,0,1,.074,0Zm0,1.437.092.275.29,0a.039.039,0,0,1,.023.07l-.233.172.087.276a.039.039,0,0,1-.06.043l-.236-.168-.236.168a.039.039,0,0,1-.06-.043l.087-.276-.233-.172a.039.039,0,0,1,.023-.07l.29,0,.092-.275a.039.039,0,0,1,.074,0Zm0,1.437.092.275.29,0a.039.039,0,0,1,.023.07l-.233.172.087.276a.039.039,0,0,1-.06.044l-.236-.168-.236.168a.039.039,0,0,1-.06-.044l.087-.276-.233-.172a.039.039,0,0,1,.023-.07l.29,0,.092-.275a.039.039,0,0,1,.074,0ZM16.977,108l.092.275.29,0a.039.039,0,0,1,.023.07l-.233.172.087.276a.039.039,0,0,1-.06.044l-.236-.168-.236.168a.039.039,0,0,1-.06-.044l.087-.276-.233-.172a.039.039,0,0,1,.023-.07l.29,0L16.9,108A.039.039,0,0,1,16.977,108Zm0,1.437.092.275.29,0a.039.039,0,0,1,.023.07l-.233.172.087.276a.039.039,0,0,1-.06.043l-.236-.168-.236.168a.039.039,0,0,1-.06-.043l.087-.276-.233-.172a.039.039,0,0,1,.023-.07l.29,0,.092-.275A.039.039,0,0,1,16.977,109.432Zm0,1.437.092.275.29,0a.039.039,0,0,1,.023.07l-.233.172.087.276a.039.039,0,0,1-.06.044l-.236-.168-.236.168a.039.039,0,0,1-.06-.044l.087-.276-.233-.172a.039.039,0,0,1,.023-.07l.29,0,.092-.275A.039.039,0,0,1,16.977,110.869Zm0,1.437.092.275.29,0a.039.039,0,0,1,.023.07l-.233.172.087.276a.039.039,0,0,1-.06.044l-.236-.168-.236.168a.039.039,0,0,1-.06-.044l.087-.276-.233-.172a.039.039,0,0,1,.023-.07l.29,0,.092-.275A.039.039,0,0,1,16.977,112.306Zm0,1.437.092.275.29,0a.039.039,0,0,1,.023.07l-.233.172.087.276a.039.039,0,0,1-.06.044l-.236-.168-.236.168a.039.039,0,0,1-.06-.044l.087-.276-.233-.172a.039.039,0,0,1,.023-.07l.29,0,.092-.275A.039.039,0,0,1,16.977,113.743Zm1.115-5.043.092.275.29,0a.039.039,0,0,1,.023.07l-.233.172.087.276a.039.039,0,0,1-.06.043l-.236-.168-.236.168a.039.039,0,0,1-.06-.043l.087-.276-.233-.172a.039.039,0,0,1,.023-.07l.29,0,.092-.275A.039.039,0,0,1,18.092,108.7Zm0,1.437.092.275.29,0a.039.039,0,0,1,.023.07l-.233.172.087.276a.039.039,0,0,1-.06.044l-.236-.168-.236.168a.039.039,0,0,1-.06-.044l.087-.276-.233-.172a.039.039,0,0,1,.023-.07l.29,0,.092-.275A.039.039,0,0,1,18.092,110.137Zm0,1.437.092.275.29,0a.039.039,0,0,1,.023.07l-.233.172.087.276a.039.039,0,0,1-.06.043l-.236-.168-.236.168a.039.039,0,0,1-.06-.043l.087-.276-.233-.172a.039.039,0,0,1,.023-.07l.29,0,.092-.275A.039.039,0,0,1,18.092,111.574Zm0,1.437.092.275.29,0a.039.039,0,0,1,.023.07l-.233.172.087.276a.039.039,0,0,1-.06.044l-.236-.168-.236.168a.039.039,0,0,1-.06-.044l.087-.276-.233-.172a.039.039,0,0,1,.023-.07l.29,0,.092-.275A.039.039,0,0,1,18.092,113.011ZM19.208,108l.092.275.29,0a.039.039,0,0,1,.023.07l-.233.172.087.276a.039.039,0,0,1-.06.044l-.236-.168-.236.168a.039.039,0,0,1-.06-.044l.087-.276-.233-.172a.039.039,0,0,1,.023-.07l.29,0,.092-.275A.039.039,0,0,1,19.208,108Zm0,1.437.092.275.29,0a.039.039,0,0,1,.023.07l-.233.172.087.276a.039.039,0,0,1-.06.043l-.236-.168-.236.168a.039.039,0,0,1-.06-.043l.087-.276-.233-.172a.039.039,0,0,1,.023-.07l.29,0,.092-.275A.039.039,0,0,1,19.208,109.432Zm0,1.437.092.275.29,0a.039.039,0,0,1,.023.07l-.233.172.087.276a.039.039,0,0,1-.06.044l-.236-.168-.236.168a.039.039,0,0,1-.06-.044l.087-.276-.233-.172a.039.039,0,0,1,.023-.07l.29,0,.092-.275A.039.039,0,0,1,19.208,110.869Zm0,1.437.092.275.29,0a.039.039,0,0,1,.023.07l-.233.172.087.276a.039.039,0,0,1-.06.044l-.236-.168-.236.168a.039.039,0,0,1-.06-.044l.087-.276-.233-.172a.039.039,0,0,1,.023-.07l.29,0,.092-.275A.039.039,0,0,1,19.208,112.306Zm0,1.437.092.275.29,0a.039.039,0,0,1,.023.07l-.233.172.087.276a.039.039,0,0,1-.06.044l-.236-.168-.236.168a.039.039,0,0,1-.06-.044l.087-.276-.233-.172a.039.039,0,0,1,.023-.07l.29,0,.092-.275A.039.039,0,0,1,19.208,113.743Zm1.115-5.043.092.275.29,0a.039.039,0,0,1,.023.07l-.233.172.087.276a.039.039,0,0,1-.06.043l-.236-.168-.236.168a.039.039,0,0,1-.06-.043l.087-.276-.233-.172a.039.039,0,0,1,.023-.07l.29,0,.092-.275A.039.039,0,0,1,20.323,108.7Zm0,1.437.092.275.29,0a.039.039,0,0,1,.023.07l-.233.172.087.276a.039.039,0,0,1-.06.044l-.236-.168-.236.168a.039.039,0,0,1-.06-.044l.087-.276-.233-.172a.039.039,0,0,1,.023-.07l.29,0,.092-.275A.039.039,0,0,1,20.323,110.137Zm0,1.437.092.275.29,0a.039.039,0,0,1,.023.07l-.233.172.087.276a.039.039,0,0,1-.06.043l-.236-.168-.236.168a.039.039,0,0,1-.06-.043l.087-.276-.233-.172a.039.039,0,0,1,.023-.07l.29,0,.092-.275A.039.039,0,0,1,20.323,111.574Zm0,1.437.092.275.29,0a.039.039,0,0,1,.023.07l-.233.172.087.276a.039.039,0,0,1-.06.044l-.236-.168-.236.168a.039.039,0,0,1-.06-.044l.087-.276-.233-.172a.039.039,0,0,1,.023-.07l.29,0,.092-.275A.039.039,0,0,1,20.323,113.011ZM21.438,108l.092.275.29,0a.039.039,0,0,1,.023.07l-.233.172.087.276a.039.039,0,0,1-.06.044l-.236-.168-.236.168a.039.039,0,0,1-.06-.044l.087-.276-.233-.172a.039.039,0,0,1,.023-.07l.29,0,.092-.275a.039.039,0,0,1,.074,0Zm0,1.437.092.275.29,0a.039.039,0,0,1,.023.07l-.233.172.087.276a.039.039,0,0,1-.06.043L21.4,110.1l-.236.168a.039.039,0,0,1-.06-.043l.087-.276-.233-.172a.039.039,0,0,1,.023-.07l.29,0,.092-.275a.039.039,0,0,1,.074,0Zm0,1.437.092.275.29,0a.039.039,0,0,1,.023.07l-.233.172.087.276a.039.039,0,0,1-.06.044l-.236-.168-.236.168a.039.039,0,0,1-.06-.044l.087-.276-.233-.172a.039.039,0,0,1,.023-.07l.29,0,.092-.275a.039.039,0,0,1,.074,0Zm0,1.437.092.275.29,0a.039.039,0,0,1,.023.07l-.233.172.087.276a.039.039,0,0,1-.06.044l-.236-.168-.236.168a.039.039,0,0,1-.06-.044l.087-.276-.233-.172a.039.039,0,0,1,.023-.07l.29,0,.092-.275a.039.039,0,0,1,.074,0Zm0,1.437.092.275.29,0a.039.039,0,0,1,.023.07l-.233.172.087.276a.039.039,0,0,1-.06.044l-.236-.168-.236.168a.039.039,0,0,1-.06-.044l.087-.276-.233-.172a.039.039,0,0,1,.023-.07l.29,0,.092-.275a.039.039,0,0,1,.074,0Zm1.115-5.043.092.275.29,0a.039.039,0,0,1,.023.07l-.233.172.087.276a.039.039,0,0,1-.06.043l-.236-.168-.236.168a.039.039,0,0,1-.06-.043l.087-.276-.233-.172a.039.039,0,0,1,.023-.07l.29,0,.092-.275A.039.039,0,0,1,22.554,108.7Zm0,1.437.092.275.29,0a.039.039,0,0,1,.023.07l-.233.172.087.276a.039.039,0,0,1-.06.044l-.236-.168-.236.168a.039.039,0,0,1-.06-.044l.087-.276-.233-.172a.039.039,0,0,1,.023-.07l.29,0,.092-.275A.039.039,0,0,1,22.554,110.137Zm0,1.437.092.275.29,0a.039.039,0,0,1,.023.07l-.233.172.087.276a.039.039,0,0,1-.06.043l-.236-.168-.236.168a.039.039,0,0,1-.06-.043l.087-.276-.233-.172a.039.039,0,0,1,.023-.07l.29,0,.092-.275A.039.039,0,0,1,22.554,111.574Zm0,1.437.092.275.29,0a.039.039,0,0,1,.023.07l-.233.172.087.276a.039.039,0,0,1-.06.044l-.236-.168-.236.168a.039.039,0,0,1-.06-.044l.087-.276-.233-.172a.039.039,0,0,1,.023-.07l.29,0,.092-.275A.039.039,0,0,1,22.554,113.011ZM23.669,108l.092.275.29,0a.039.039,0,0,1,.023.07l-.233.172.087.276a.039.039,0,0,1-.06.044l-.236-.168-.236.168a.039.039,0,0,1-.06-.044l.087-.276-.233-.172a.039.039,0,0,1,.023-.07l.29,0L23.6,108a.039.039,0,0,1,.074,0Zm0,1.437.092.275.29,0a.039.039,0,0,1,.023.07l-.233.172.087.276a.039.039,0,0,1-.06.043l-.236-.168-.236.168a.039.039,0,0,1-.06-.043l.087-.276-.233-.172a.039.039,0,0,1,.023-.07l.29,0,.092-.275a.039.039,0,0,1,.074,0Zm0,1.437.092.275.29,0a.039.039,0,0,1,.023.07l-.233.172.087.276a.039.039,0,0,1-.06.044l-.236-.168-.236.168a.039.039,0,0,1-.06-.044l.087-.276-.233-.172a.039.039,0,0,1,.023-.07l.29,0,.092-.275a.039.039,0,0,1,.074,0Zm0,1.437.092.275.29,0a.039.039,0,0,1,.023.07l-.233.172.087.276a.039.039,0,0,1-.06.044l-.236-.168-.236.168a.039.039,0,0,1-.06-.044l.087-.276-.233-.172a.039.039,0,0,1,.023-.07l.29,0,.092-.275a.039.039,0,0,1,.074,0Zm0,1.437.092.275.29,0a.039.039,0,0,1,.023.07l-.233.172.087.276a.039.039,0,0,1-.06.044l-.236-.168-.236.168a.039.039,0,0,1-.06-.044l.087-.276-.233-.172a.039.039,0,0,1,.023-.07l.29,0,.092-.275a.039.039,0,0,1,.074,0Z" transform="translate(-13.585 -18.77)" fill="#f5f5f5"/>
    </g>
  </g>
</svg>
