<svg width="37" height="32" viewBox="0 0 37 32" fill="none" xmlns="http://www.w3.org/2000/svg">
<g id="Frame" clip-path="url(#clip0_11_829)">
<path id="Vector" fill-rule="evenodd" clip-rule="evenodd" d="M15.3303 5.375H21.6696C24.5032 5.375 26.7479 5.375 28.5038 5.6045C30.3107 5.8415 31.7737 6.3395 32.9284 7.4615C33.9737 8.4785 34.4932 9.7445 34.763 11.2865C34.9588 12.4115 35.0297 13.745 35.0559 15.311C35.0761 15.425 35.0782 15.5414 35.0621 15.656C35.0667 16.085 35.0698 16.532 35.0713 16.997C35.0722 17.2954 34.9511 17.5818 34.7349 17.7934C34.6278 17.8981 34.5005 17.9813 34.3604 18.0382C34.2203 18.0951 34.07 18.1246 33.9182 18.125C33.6115 18.1258 33.3171 18.008 33.0997 17.7976C32.8823 17.5872 32.7597 17.3014 32.7588 17.003V16.625H4.2411C4.23801 17.207 4.23801 17.831 4.23801 18.5C4.23801 21.3605 4.2411 23.393 4.45385 24.935C4.66197 26.4425 5.05356 27.3125 5.70568 27.947C6.3578 28.5815 7.25197 28.9625 8.80289 29.165C10.3877 29.372 12.4751 29.375 15.4151 29.375H17.7276C18.0343 29.375 18.3284 29.4935 18.5452 29.7045C18.762 29.9155 18.8838 30.2016 18.8838 30.5C18.8838 30.7984 18.762 31.0845 18.5452 31.2955C18.3284 31.5065 18.0343 31.625 17.7276 31.625H15.3303C12.4967 31.625 10.2521 31.625 8.4961 31.3955C6.68926 31.1585 5.22622 30.6605 4.07151 29.5385C2.91835 28.415 2.40651 26.9915 2.16293 25.2335C1.92706 23.5235 1.92706 21.341 1.92706 18.584V18.416C1.92706 17.423 1.92706 16.505 1.93785 15.656C1.92132 15.5414 1.92288 15.4251 1.94247 15.311C1.96714 13.9505 2.02418 12.776 2.16293 11.7665C2.40651 10.0085 2.91835 8.585 4.07151 7.4615C5.22622 6.3395 6.68926 5.8415 8.4961 5.6045C10.2536 5.375 12.4967 5.375 15.3303 5.375ZM4.27964 14.375H32.7203C32.6833 13.3025 32.6124 12.416 32.4829 11.663C32.2624 10.4 31.8863 9.6305 31.2927 9.053C30.6406 8.4185 29.7464 8.0375 28.1955 7.835C26.6122 7.628 24.5233 7.625 21.5833 7.625H15.4166C12.4767 7.625 10.3893 7.628 8.80289 7.835C7.25351 8.0375 6.35935 8.4185 5.70722 9.053C5.0551 9.6875 4.66351 10.5575 4.45539 12.0665C4.36289 12.734 4.31047 13.4945 4.27964 14.375ZM23.8958 20.375C24.2025 20.375 24.4966 20.4935 24.7134 20.7045C24.9302 20.9155 25.0521 21.2016 25.0521 21.5V27.785L26.1621 26.705C26.2679 26.5945 26.3956 26.5058 26.5374 26.4443C26.6792 26.3828 26.8323 26.3498 26.9876 26.3471C27.1428 26.3444 27.297 26.3722 27.441 26.4288C27.585 26.4854 27.7158 26.5696 27.8256 26.6764C27.9354 26.7833 28.0219 26.9105 28.0801 27.0506C28.1382 27.1907 28.1668 27.3407 28.164 27.4918C28.1613 27.6428 28.1273 27.7918 28.0641 27.9298C28.0009 28.0678 27.9098 28.192 27.7962 28.295L24.7129 31.295C24.4961 31.5057 24.2022 31.624 23.8958 31.624C23.5894 31.624 23.2955 31.5057 23.0787 31.295L19.9954 28.295C19.8818 28.192 19.7907 28.0678 19.7275 27.9298C19.6643 27.7918 19.6303 27.6428 19.6276 27.4918C19.6248 27.3407 19.6534 27.1907 19.7115 27.0506C19.7697 26.9105 19.8562 26.7833 19.966 26.6764C20.0758 26.5696 20.2066 26.4854 20.3506 26.4288C20.4946 26.3722 20.6488 26.3444 20.804 26.3471C20.9593 26.3498 21.1124 26.3828 21.2542 26.4443C21.396 26.5058 21.5237 26.5945 21.6296 26.705L22.7396 27.785V21.5C22.7396 21.2016 22.8614 20.9155 23.0782 20.7045C23.2951 20.4935 23.5891 20.375 23.8958 20.375ZM30.0162 20.705C30.233 20.4943 30.5269 20.376 30.8333 20.376C31.1397 20.376 31.4336 20.4943 31.6504 20.705L34.7337 23.705C34.8473 23.808 34.9384 23.9322 35.0016 24.0702C35.0648 24.2082 35.0988 24.3572 35.1015 24.5082C35.1043 24.6593 35.0757 24.8093 35.0176 24.9494C34.9594 25.0895 34.8729 25.2167 34.7631 25.3236C34.6533 25.4304 34.5225 25.5146 34.3785 25.5712C34.2345 25.6278 34.0803 25.6556 33.9251 25.6529C33.7698 25.6502 33.6167 25.6172 33.4749 25.5557C33.3331 25.4942 33.2054 25.4055 33.0996 25.295L31.9896 24.215V30.5C31.9896 30.7984 31.8677 31.0845 31.6509 31.2955C31.4341 31.5065 31.14 31.625 30.8333 31.625C30.5266 31.625 30.2325 31.5065 30.0157 31.2955C29.7989 31.0845 29.6771 30.7984 29.6771 30.5V24.215L28.5671 25.295C28.4612 25.4055 28.3336 25.4942 28.1917 25.5557C28.0499 25.6172 27.8968 25.6502 27.7415 25.6529C27.5863 25.6556 27.4321 25.6278 27.2881 25.5712C27.1441 25.5146 27.0133 25.4304 26.9035 25.3236C26.7937 25.2167 26.7072 25.0895 26.649 24.9494C26.5909 24.8093 26.5623 24.6593 26.5651 24.5082C26.5678 24.3572 26.6018 24.2082 26.665 24.0702C26.7282 23.9322 26.8193 23.808 26.9329 23.705L30.0162 20.705ZM8.09372 24.5C8.09372 24.2016 8.21554 23.9155 8.43238 23.7045C8.64922 23.4935 8.94332 23.375 9.24997 23.375H15.4166C15.7233 23.375 16.0174 23.4935 16.2342 23.7045C16.4511 23.9155 16.5729 24.2016 16.5729 24.5C16.5729 24.7984 16.4511 25.0845 16.2342 25.2955C16.0174 25.5065 15.7233 25.625 15.4166 25.625H9.24997C8.94332 25.625 8.64922 25.5065 8.43238 25.2955C8.21554 25.0845 8.09372 24.7984 8.09372 24.5Z" fill="url(#paint0_linear_11_829)"/>
</g>
<defs>
<linearGradient id="paint0_linear_11_829" x1="7.5" y1="7" x2="31.5" y2="32" gradientUnits="userSpaceOnUse">
<stop stop-color="#00A1FF"/>
<stop offset="1" stop-color="#0373B4"/>
</linearGradient>
<clipPath id="clip0_11_829">
<rect width="37" height="31" fill="white" transform="translate(0 0.5)"/>
</clipPath>
</defs>
</svg>
